<?xml version="1.0" encoding="UTF-8"?>
<svg version="1.1" xmlns="http://www.w3.org/2000/svg" width="512" height="512">
<path d="M0 0 C1.01563019 0.00182281 2.03126038 0.00364563 3.07766724 0.00552368 C18.07872615 0.0508557 32.66170982 0.51275848 47.4375 3.3125 C48.33130371 3.4681543 49.22510742 3.62380859 50.14599609 3.78417969 C99.78354239 12.54528967 146.15797343 36.47081796 182.4375 71.3125 C183.0862207 71.92867188 183.73494141 72.54484375 184.40332031 73.1796875 C194.86867392 83.16426616 204.00501493 93.56748023 212.4375 105.3125 C213.11039062 106.22386719 213.78328125 107.13523437 214.4765625 108.07421875 C233.37145816 134.17333262 245.90590032 164.67015213 252.6875 196.0625 C252.83864258 196.75738525 252.98978516 197.45227051 253.14550781 198.16821289 C255.98839484 212.15643635 256.78632003 225.93034295 256.75317383 240.16479492 C256.75002306 242.97940213 256.77354324 245.79294415 256.79882812 248.60742188 C256.85932779 265.67921738 254.82675035 282.29809151 250.6875 298.875 C250.42783447 299.92252441 250.16816895 300.97004883 249.90063477 302.04931641 C241.67831427 334.31573247 226.5679757 364.55158056 205.4375 390.3125 C205.00566406 390.84584961 204.57382812 391.37919922 204.12890625 391.92871094 C192.06223754 406.76721587 178.60256293 420.73121435 163.1484375 432.05029297 C161.38111125 433.35409958 159.64310877 434.69109038 157.90625 436.03515625 C148.27911788 443.40196009 138.07377409 449.51754869 127.4375 455.3125 C126.7770166 455.6744043 126.1165332 456.03630859 125.43603516 456.40917969 C86.96041827 477.23643669 43.85219314 486.81168783 0.3125 486.625 C-1.02346222 486.62226578 -1.02346222 486.62226578 -2.38641357 486.61947632 C-29.29591008 486.52720316 -56.06335398 483.38936165 -81.45068359 474.01635742 C-82.16949707 473.76474854 -82.88831055 473.51313965 -83.62890625 473.25390625 C-84.24709229 473.02388916 -84.86527832 472.79387207 -85.50219727 472.55688477 C-90.58105772 471.95445091 -95.4612701 475.16158168 -99.82421875 477.4375 C-100.40773605 477.74040451 -100.99125336 478.04330902 -101.592453 478.35539246 C-103.48053581 479.3368728 -105.36528472 480.32457087 -107.25 481.3125 C-108.56573707 481.99814998 -109.88165659 482.68344996 -111.19775391 483.3684082 C-114.98926562 485.34356331 -118.77658821 487.32663622 -122.5625 489.3125 C-123.50013184 489.80411621 -124.43776367 490.29573242 -125.40380859 490.80224609 C-131.78423132 494.1511838 -138.15884921 497.51119362 -144.52783203 500.88183594 C-147.68309366 502.55029193 -150.84133497 504.21299795 -154 505.875 C-154.9904834 506.40053467 -155.9809668 506.92606934 -157.00146484 507.4675293 C-157.92781738 507.95390869 -158.85416992 508.44028809 -159.80859375 508.94140625 C-160.63029053 509.37525635 -161.4519873 509.80910645 -162.29858398 510.25610352 C-164.40142401 511.23733815 -166.3138645 511.78742638 -168.5625 512.3125 C-168.54616013 511.26173279 -168.52982025 510.21096558 -168.51298523 509.12835693 C-168.36693208 499.18383917 -168.2902914 489.24083431 -168.28009319 479.29522324 C-168.27266056 474.18272547 -168.24151916 469.07274983 -168.15454102 463.9609375 C-168.07135716 459.01924316 -168.05261326 454.0809725 -168.07691383 449.1386795 C-168.07513372 447.26166134 -168.05085805 445.38451407 -168.00281334 443.50811005 C-167.52875942 432.25673739 -167.52875942 432.25673739 -172.41015625 422.54562378 C-175.54925119 419.44165955 -178.98804383 416.89350878 -182.5625 414.3125 C-183.97594069 413.01943684 -185.37210664 411.70628618 -186.7265625 410.3515625 C-187.30510986 409.7855835 -187.88365723 409.21960449 -188.47973633 408.63647461 C-195.84978529 401.30435585 -202.39390842 393.67240803 -208.5625 385.3125 C-209.39962299 384.20564098 -210.23686192 383.09886963 -211.07421875 381.9921875 C-229.4691207 357.32400458 -242.56012113 328.57986737 -249.875 298.75 C-250.10533936 297.81913574 -250.33567871 296.88827148 -250.57299805 295.92919922 C-254.58393419 278.6225617 -256.12112634 261.41673535 -256 243.6875 C-255.99695862 242.73437927 -255.99391724 241.78125854 -255.99078369 240.79925537 C-255.87984562 217.17240395 -252.77451917 194.87179534 -245.5625 172.3125 C-245.13759277 170.97807861 -245.13759277 170.97807861 -244.70410156 169.61669922 C-236.10548169 143.20800978 -222.80474717 119.04367703 -205.5625 97.3125 C-204.81484375 96.35988281 -204.0671875 95.40726562 -203.296875 94.42578125 C-190.54548696 78.76723714 -175.96683749 64.12028718 -159.5625 52.3125 C-158.41585128 51.46073199 -157.27003275 50.60784537 -156.125 49.75390625 C-147.93339798 43.70646867 -139.42346602 38.32151588 -130.5625 33.3125 C-129.85528809 32.9103125 -129.14807617 32.508125 -128.41943359 32.09375 C-89.15116924 9.98538036 -44.842326 -0.16697219 0 0 Z " fill="#5596FB" transform="translate(255.5625,-0.31250000000000006)"/>
<path d="M0 0 C3.69400653 -0.01404617 7.3880061 -0.02252317 11.08203125 -0.0300293 C12.64346863 -0.036068 12.64346863 -0.036068 14.2364502 -0.0422287 C21.23058087 -0.05288626 28.06896056 0.18968382 35 1.1875 C35.98597168 1.322771 36.97194336 1.45804199 37.98779297 1.59741211 C92.10021551 9.3899111 142.51129614 33.07632806 182 71 C182.6487207 71.61617188 183.29744141 72.23234375 183.96582031 72.8671875 C194.43117392 82.85176616 203.56751493 93.25498023 212 105 C212.67289063 105.91136719 213.34578125 106.82273437 214.0390625 107.76171875 C232.93395816 133.86083262 245.46840032 164.35765213 252.25 195.75 C252.40114258 196.44488525 252.55228516 197.13977051 252.70800781 197.85571289 C255.55089484 211.84393635 256.34882003 225.61784295 256.31567383 239.85229492 C256.31252306 242.66690213 256.33604324 245.48044415 256.36132812 248.29492188 C256.42182779 265.36671738 254.38925035 281.98559151 250.25 298.5625 C249.99033447 299.61002441 249.73066895 300.65754883 249.46313477 301.73681641 C241.24081427 334.00323247 226.1304757 364.23908056 205 390 C204.56816406 390.53334961 204.13632812 391.06669922 203.69140625 391.61621094 C191.62473754 406.45471587 178.16506293 420.41871435 162.7109375 431.73779297 C160.94361125 433.04159958 159.20560877 434.37859038 157.46875 435.72265625 C147.84161788 443.08946009 137.63627409 449.20504869 127 455 C126.3395166 455.3619043 125.6790332 455.72380859 124.99853516 456.09667969 C86.19773365 477.09996256 43.81455164 486 0 486 C0 430.56 0 375.12 0 318 C7.33098942 324.28370522 14.00658712 330.61961646 20.1640625 338.04296875 C22.58789135 340.62666716 25.24842163 342.76867804 28 345 C28.72703125 344.21238281 29.4540625 343.42476563 30.203125 342.61328125 C43.046875 328.69921875 43.046875 328.69921875 44.52661133 327.09619141 C45.51605889 326.02427622 46.50547908 324.95233575 47.49487305 323.88037109 C50.00766542 321.15794098 52.52093625 318.43595552 55.03515625 315.71484375 C60.32042386 309.99367778 65.5960005 304.26395768 70.85571289 298.51928711 C74.7321468 294.2873572 78.62481704 290.07057076 82.51953125 285.85546875 C85.85467191 282.24455418 89.18066251 278.62544354 92.5 275 C96.82736416 270.27357055 101.1706493 265.56209935 105.51953125 260.85546875 C108.85467191 257.24455418 112.18066251 253.62544354 115.5 250 C119.82736416 245.27357055 124.1706493 240.56209935 128.51953125 235.85546875 C131.85467204 232.24455405 135.18063499 228.62541847 138.5 225 C142.30374366 220.84604653 146.1164171 216.70051056 149.9375 212.5625 C150.43419189 212.02455811 150.93088379 211.48661621 151.44262695 210.93237305 C153.99664158 208.16700308 156.55223556 205.40310563 159.109375 202.640625 C165.12454059 196.13882008 171.09232081 189.59988702 177 183 C168.23221023 185.19343593 159.72281149 188.05898973 151.18930054 191.00997925 C146.72249535 192.55441859 142.25161145 194.08698499 137.78125 195.62109375 C136.30696785 196.12749138 136.30696785 196.12749138 134.80290222 196.64411926 C126.28244936 199.56780448 117.75192987 202.46139328 109.21875 205.34765625 C108.19798339 205.69297646 108.19798339 205.69297646 107.15659523 206.04527283 C100.99475506 208.12967515 94.83257212 210.21306226 88.66976929 212.2946167 C86.06588138 213.17411989 83.4622009 214.05423259 80.85871887 214.93493652 C78.36496565 215.7783168 75.87082372 216.62054869 73.37626648 217.46154785 C67.84605829 219.33144375 62.32962776 221.22671779 56.84228516 223.21923828 C55.91277542 223.55476212 54.98326569 223.89028595 54.02558899 224.23597717 C52.33033485 224.85158324 50.63828051 225.47611036 48.95036316 226.11155701 C45.19322439 227.47486819 42.80964772 228.31097802 39 227 C37.46362305 225.82006836 37.46362305 225.82006836 36.01171875 224.33984375 C35.20480591 223.52616333 35.20480591 223.52616333 34.3815918 222.69604492 C33.8225415 222.1157251 33.26349121 221.53540527 32.6875 220.9375 C32.10718018 220.34622314 31.52686035 219.75494629 30.92895508 219.14575195 C27.35584193 215.48046821 23.91889896 211.72670321 20.60546875 207.82421875 C18.19703439 205.08762789 15.58107845 202.57206948 12.984375 200.015625 C10.41013297 197.40084372 8.01831818 194.65258738 5.640625 191.859375 C4.03196117 189.92625962 4.03196117 189.92625962 1.92752457 188.35518265 C-0.68868229 185.15852041 -0.5456693 182.40881716 -0.48101807 178.45770264 C-0.48443577 177.6947442 -0.48785347 176.93178576 -0.49137473 176.14570737 C-0.4979672 173.58731679 -0.47595588 171.02997372 -0.45410156 168.47167969 C-0.45297338 166.63860092 -0.45360638 164.80552034 -0.45587158 162.97244263 C-0.45702078 157.99334155 -0.43347806 153.01462472 -0.40557575 148.03561306 C-0.38059647 142.83327105 -0.37822284 137.63092056 -0.37347412 132.42852783 C-0.36103413 122.57585384 -0.32819863 112.72335706 -0.28807616 102.87076116 C-0.24339032 91.65446182 -0.22137942 80.4381541 -0.20129442 69.22178793 C-0.15946694 46.14776031 -0.08909496 23.07389008 0 0 Z " fill="#2476ED" transform="translate(256,0)"/>
<path d="M0 0 C5.75716568 4.57956361 10.62776423 9.82443838 15.56640625 15.24609375 C19.28989451 19.33269006 23.0799225 23.3549683 26.875 27.375 C31.9511327 32.7582297 37.01719813 38.15035845 42.0625 43.5625 C47.0786984 48.94184575 52.09817033 54.31808489 57.125 59.6875 C57.752854 60.35918213 58.38070801 61.03086426 59.02758789 61.72290039 C60.18455709 62.95801977 61.34964006 64.18561171 62.52441406 65.40380859 C64 67 64 67 65.8671875 69.58203125 C67.83576597 71.21772616 67.83576597 71.21772616 69.86502075 70.80369568 C75.3091067 69.49418042 80.58775574 67.91824301 85.875 66.078125 C86.72925064 65.78547256 87.58350128 65.49282013 88.46363831 65.19129944 C90.32821584 64.5519662 92.19204615 63.91045043 94.0552063 63.26699829 C98.13032759 61.85963608 102.20897621 60.46263193 106.28749084 59.06513977 C108.52214996 58.29943735 110.75663194 57.53321781 112.99095154 56.76652527 C122.34109678 53.56042228 131.70193104 50.38661373 141.06640625 47.22265625 C142.15352968 46.85527533 142.15352968 46.85527533 143.2626152 46.48047256 C149.78883402 44.27508727 156.31541476 42.0707749 162.8425293 39.86804199 C166.27208347 38.71058908 169.70123477 37.55194921 173.1301403 36.39257622 C174.9878723 35.76481912 176.84604602 35.13836971 178.70423889 34.51197815 C179.85444016 34.1229985 181.00464142 33.73401886 182.18969727 33.33325195 C183.30184601 32.95762115 184.41399475 32.58199036 185.55984497 32.19497681 C188.01154019 31.34335271 190.44316064 30.46941018 192.87252808 29.5586853 C193.51000693 29.32215587 194.14748579 29.08562643 194.80428219 28.84192944 C196.58374725 28.17849213 198.35919787 27.5043162 200.13438416 26.82951355 C203 26 203 26 206 27 C205.56244385 27.4626123 205.1248877 27.92522461 204.67407227 28.40185547 C193.88823946 39.80776987 193.88823946 39.80776987 183.328125 51.421875 C180.29911577 54.77614697 177.21336948 58.07543175 174.125 61.375 C168.03929283 67.87732464 162.00669606 74.42462266 156 81 C154.18834255 82.97993913 152.37563685 84.95891562 150.5625 86.9375 C150.11108643 87.43016357 149.65967285 87.92282715 149.19458008 88.43041992 C145.30028303 92.67792868 141.39138702 96.91186058 137.48071289 101.14428711 C134.14547198 104.75526569 130.81941515 108.37447164 127.5 112 C123.17263584 116.72642945 118.8293507 121.43790065 114.48046875 126.14453125 C111.14532809 129.75544582 107.81933749 133.37455646 104.5 137 C100.17263584 141.72642945 95.8293507 146.43790065 91.48046875 151.14453125 C87.69345486 155.24468323 83.91934513 159.35645493 80.15112305 163.47387695 C77.23179288 166.66189255 74.30084611 169.83886492 71.36425781 173.01098633 C66.17611738 178.61623496 61.041419 184.26167896 56 190 C50.50529285 185.47494705 45.64130768 180.59827366 40.8125 175.375 C39.42369864 173.88232707 38.03439183 172.39012422 36.64453125 170.8984375 C36.03971924 170.24536621 35.43490723 169.59229492 34.81176758 168.91943359 C33.50488624 167.53488958 32.15185719 166.19340457 30.7722168 164.88134766 C29 163 29 163 29 161 C28.34 161 27.68 161 27 161 C25.53710938 159.53125 25.53710938 159.53125 23.84375 157.5 C20.18948392 153.20397231 16.38043116 149.09159791 12.5 145 C8.22279164 140.48707172 3.9570074 135.96797532 -0.234375 131.375 C-0.90919922 130.64023437 -1.58402344 129.90546875 -2.27929688 129.1484375 C-3.56845607 127.74301122 -4.85129541 126.33175494 -6.12695312 124.9140625 C-6.70896484 124.28242188 -7.29097656 123.65078125 -7.890625 123 C-8.39625977 122.443125 -8.90189453 121.88625 -9.42285156 121.3125 C-11.36812674 119.69364561 -12.48716507 119.34739692 -15 119 C-17.77188106 119.59576151 -17.77188106 119.59576151 -20.77026367 120.68383789 C-21.9404303 121.07968079 -23.11059692 121.47552368 -24.31622314 121.88336182 C-25.60020796 122.32959305 -26.88412107 122.77603063 -28.16796875 123.22265625 C-29.5078033 123.68018192 -30.84795936 124.13676702 -32.18841553 124.59246826 C-35.78150992 125.81683991 -39.37007424 127.0540126 -42.9579277 128.29364395 C-46.67647788 129.57596604 -50.3990739 130.84642745 -54.12133789 132.11791992 C-60.03545646 134.13961665 -65.94735093 136.16767421 -71.85742188 138.20117188 C-78.73915308 140.56878287 -85.62553425 142.92243774 -92.515625 145.265625 C-94.31535633 145.87806886 -96.11507995 146.49053539 -97.91479492 147.10302734 C-98.75448822 147.38877625 -99.59418152 147.67452515 -100.45932007 147.96893311 C-110.03931665 151.22994247 -119.61560974 154.49703742 -129.15234375 157.8828125 C-130.38670166 158.31875732 -131.62105957 158.75470215 -132.89282227 159.20385742 C-135.12671346 159.99526542 -137.35794401 160.79424791 -139.58569336 161.6027832 C-140.53452393 161.93882568 -141.48335449 162.27486816 -142.4609375 162.62109375 C-143.67982666 163.06086548 -143.67982666 163.06086548 -144.92333984 163.50952148 C-147 164 -147 164 -150 163 C-149.50371094 162.5153125 -149.00742188 162.030625 -148.49609375 161.53125 C-147.47708984 160.52578125 -147.47708984 160.52578125 -146.4375 159.5 C-145.44556641 158.52546875 -145.44556641 158.52546875 -144.43359375 157.53125 C-142.44868902 155.4666942 -140.56017822 153.37196489 -138.68359375 151.2109375 C-135.09854683 147.08325511 -131.38186494 143.09601452 -127.625 139.125 C-122.80860094 134.01224333 -118.04718972 128.86291778 -113.37109375 123.62109375 C-110.2860955 120.21082386 -107.14368706 116.85611517 -104 113.5 C-100.12828692 109.36638745 -96.27343959 105.22399954 -92.5 101 C-88.12642707 96.1042094 -83.63978954 91.31837995 -79.15234375 86.52734375 C-75.8989652 83.04910967 -72.67311577 79.55199527 -69.5 76 C-65.17170659 71.15681666 -60.73776298 66.41667626 -56.29956055 61.67456055 C-50.82404299 55.8211666 -45.40591096 49.91771318 -40 44 C-38.18834255 42.02006087 -36.37563685 40.04108438 -34.5625 38.0625 C-34.11108643 37.56983643 -33.65967285 37.07717285 -33.19458008 36.56958008 C-29.80459179 32.87212076 -26.40393108 29.18462245 -23 25.5 C-20.99966322 23.33364402 -18.99972885 21.16691715 -17 19 C-16.5040332 18.4627832 -16.00806641 17.92556641 -15.49707031 17.37207031 C-10.23134267 11.66436684 -4.99889962 5.94463738 0 0 Z " fill="#D4F0FD" transform="translate(228,156)"/>
<path d="M0 0 C6.36640755 5.06418783 11.81630093 10.91676796 17.17150211 17.0194416 C19.01613788 19.07040965 19.01613788 19.07040965 21.25097561 21.07729912 C25.77302197 25.48002153 28.54692708 28.75850466 29.08229065 35.17581177 C29.10810131 37.50403381 29.08506959 39.83314116 29.02172852 42.16064453 C29.02304276 43.43982254 29.02435699 44.71900055 29.02571106 46.03694153 C29.02827383 49.5146777 28.97569725 52.98957041 28.91254544 56.46665049 C28.85594601 60.1113143 28.85097073 63.75605704 28.84031677 67.40109253 C28.81244098 74.28978805 28.73872272 81.17718461 28.64817137 88.06531036 C28.5472665 95.91285071 28.49801403 103.76045601 28.45291245 111.60848451 C28.35906063 127.73974778 28.20095344 143.86970765 28 160 C26.87389188 159.03878393 25.74834902 158.07690561 24.62304688 157.11474609 C23.99619995 156.57917084 23.36935303 156.04359558 22.72351074 155.49179077 C17.6338756 151.08643921 13.20142361 146.12648513 8.81640625 141.03515625 C6.32221075 138.24058451 3.65270244 135.64258303 0.984375 133.015625 C-1.0104128 130.98942322 -2.88803929 128.8984162 -4.75 126.75 C-5.32492188 126.09773438 -5.89984375 125.44546875 -6.4921875 124.7734375 C-8 123 -8 123 -9.875 120.375 C-12.13229875 118.57434313 -12.13229875 118.57434313 -15.86132812 119.65917969 C-21.80538944 121.10712245 -27.56207247 123.09176689 -33.34375 125.078125 C-34.52997452 125.48143539 -35.71619904 125.88474579 -36.93836975 126.30027771 C-40.13299695 127.38745178 -43.32614638 128.47877182 -46.51866531 129.57210922 C-49.84845253 130.71135746 -53.18005925 131.84525997 -56.51147461 132.97973633 C-62.49721784 135.01894779 -68.48141342 137.06265596 -74.46491718 139.108428 C-80.34094976 141.11719963 -86.21912794 143.11964046 -92.09765625 145.12109375 C-94.74849746 146.02425685 -97.39926597 146.92763282 -100.04998779 147.83114624 C-101.71810111 148.39969875 -103.38627284 148.96807991 -105.05450439 149.5362854 C-113.10950107 152.28083266 -121.1564918 155.04324799 -129.17578125 157.890625 C-131.02224243 158.54285034 -131.02224243 158.54285034 -132.90600586 159.20825195 C-135.13499096 159.99809923 -137.36132572 160.79548859 -139.58422852 161.60229492 C-140.53354248 161.93849854 -141.48285645 162.27470215 -142.4609375 162.62109375 C-143.67982666 163.06086548 -143.67982666 163.06086548 -144.92333984 163.50952148 C-147 164 -147 164 -150 163 C-149.50371094 162.5153125 -149.00742188 162.030625 -148.49609375 161.53125 C-147.47708984 160.52578125 -147.47708984 160.52578125 -146.4375 159.5 C-145.44556641 158.52546875 -145.44556641 158.52546875 -144.43359375 157.53125 C-142.44868902 155.4666942 -140.56017822 153.37196489 -138.68359375 151.2109375 C-135.09854683 147.08325511 -131.38186494 143.09601452 -127.625 139.125 C-122.80860094 134.01224333 -118.04718972 128.86291778 -113.37109375 123.62109375 C-110.2860955 120.21082386 -107.14368706 116.85611517 -104 113.5 C-100.12828692 109.36638745 -96.27343959 105.22399954 -92.5 101 C-88.12642707 96.1042094 -83.63978954 91.31837995 -79.15234375 86.52734375 C-75.8989652 83.04910967 -72.67311577 79.55199527 -69.5 76 C-65.17170659 71.15681666 -60.73776298 66.41667626 -56.29956055 61.67456055 C-50.82404299 55.8211666 -45.40591096 49.91771318 -40 44 C-38.18834255 42.02006087 -36.37563685 40.04108438 -34.5625 38.0625 C-34.11108643 37.56983643 -33.65967285 37.07717285 -33.19458008 36.56958008 C-29.80459179 32.87212076 -26.40393108 29.18462245 -23 25.5 C-20.99966322 23.33364402 -18.99972885 21.16691715 -17 19 C-16.5040332 18.4627832 -16.00806641 17.92556641 -15.49707031 17.37207031 C-10.23134267 11.66436684 -4.99889962 5.94463738 0 0 Z " fill="#FEFEFE" transform="translate(228,156)"/>
</svg>
